<svg width="120" height="120" viewBox="0 0 120 120" fill="none" xmlns="http://www.w3.org/2000/svg">
<g filter="url(#filter0_bi_102_69)">
<path fill-rule="evenodd" clip-rule="evenodd" d="M85.7042 91.9304C97.5195 91.9304 107.098 82.3521 107.098 70.5368C107.098 58.7215 97.5195 49.1433 85.7042 49.1433C85.6643 49.1433 85.6244 49.1434 85.5845 49.1437C85.555 49.1438 85.5255 49.144 85.496 49.1443C83.9331 37.2506 73.7571 28.0695 61.4369 28.0695C51.17 28.0695 42.3923 34.4452 38.8471 43.4533C38.2928 43.4154 37.7335 43.3962 37.1696 43.3962C23.7672 43.3962 12.9023 54.261 12.9023 67.6635C12.9023 81.0659 23.7672 91.9307 37.1696 91.9307C37.1776 91.9307 37.1855 91.9307 37.1934 91.9307H85.7041L85.7042 91.9304Z" fill="url(#paint0_linear_102_69)"/>
</g>
<defs>
<filter id="filter0_bi_102_69" x="-23.0977" y="-7.9306" width="166.195" height="135.861" filterUnits="userSpaceOnUse" color-interpolation-filters="sRGB">
<feFlood flood-opacity="0" result="BackgroundImageFix"/>
<feGaussianBlur in="BackgroundImageFix" stdDeviation="18"/>
<feComposite in2="SourceAlpha" operator="in" result="effect1_backgroundBlur_102_69"/>
<feBlend mode="normal" in="SourceGraphic" in2="effect1_backgroundBlur_102_69" result="shape"/>
<feColorMatrix in="SourceAlpha" type="matrix" values="0 0 0 0 0 0 0 0 0 0 0 0 0 0 0 0 0 0 127 0" result="hardAlpha"/>
<feOffset dy="4.2"/>
<feGaussianBlur stdDeviation="9"/>
<feComposite in2="hardAlpha" operator="arithmetic" k2="-1" k3="1"/>
<feColorMatrix type="matrix" values="0 0 0 0 1 0 0 0 0 1 0 0 0 0 1 0 0 0 0.72 0"/>
<feBlend mode="normal" in2="shape" result="effect2_innerShadow_102_69"/>
</filter>
<linearGradient id="paint0_linear_102_69" x1="60" y1="28.0694" x2="60" y2="91.9306" gradientUnits="userSpaceOnUse">
<stop stop-color="white"/>
<stop offset="1" stop-color="white" stop-opacity="0.68"/>
</linearGradient>
</defs>
</svg>
