<!DOCTYPE svg PUBLIC "-//W3C//DTD SVG 1.1//EN" "http://www.w3.org/Graphics/SVG/1.1/DTD/svg11.dtd">

<!-- Uploaded to: SVG Repo, www.svgrepo.com, Transformed by: SVG Repo Mixer Tools -->
<svg fill="#ffffff" height="180px" width="180px" version="1.1" id="Capa_1" xmlns="http://www.w3.org/2000/svg"
  xmlns:xlink="http://www.w3.org/1999/xlink" viewBox="-249.9 -249.9 989.80 989.80" xml:space="preserve"
  stroke="#ffffff">

  <g id="SVGRepo_bgCarrier" stroke-width="0" />

  <g id="SVGRepo_tracerCarrier" stroke-linecap="round" stroke-linejoin="round" stroke="#CCCCCC"
    stroke-width="1.9600000000000002" />

  <g id="SVGRepo_iconCarrier">
    <g>
      <path
        d="M400.48,196.932C400.48,88.17,312.31,0,203.548,0S6.615,88.17,6.615,196.932c0,108.763,88.169,196.933,196.932,196.933 c44.839,0,86.155-15.013,119.259-40.248l25.741,25.741l-22.849,22.849L413.491,490l69.893-69.893l-87.793-87.793L370.2,357.705 l-24.53-24.53C379.594,297.796,400.48,249.818,400.48,196.932z M440.079,420.107l-26.588,26.588l-44.487-44.487l26.588-26.588 L440.079,420.107z M37.241,196.932c0-91.702,74.605-166.307,166.307-166.307s166.307,74.605,166.307,166.307 c0,91.702-74.605,166.307-166.307,166.307S37.241,288.635,37.241,196.932z" />
      <path
        d="M168.393,84.957l-76.922,41.025v182.742l76.391-44.667l61.258,35.822l76.196-46.693V75.252l-76.383,46.805L168.393,84.957z M183.174,129.94l30.446,18.654v106.747l-30.446-17.8V129.94z M122.096,144.361l30.453-16.243v109.421l-30.453,17.801V144.361z M274.691,236.034l-30.446,18.654V148.593l30.446-18.656V236.034z" />
    </g>
  </g>

</svg>