<svg width="120" height="120" viewBox="0 0 120 120" fill="none" xmlns="http://www.w3.org/2000/svg">
<g filter="url(#filter0_di_102_76)">
<path fill-rule="evenodd" clip-rule="evenodd" d="M60.0262 15.9124C61.4738 15.9124 62.6474 17.086 62.6474 18.5336V22.2032C62.6474 23.6508 61.4738 24.8243 60.0262 24.8243C58.5786 24.8243 57.405 23.6508 57.405 22.2032V18.5336C57.405 17.086 58.5786 15.9124 60.0262 15.9124ZM60.0262 95.1761C61.4738 95.1761 62.6474 96.3497 62.6474 97.7973V101.467C62.6474 102.915 61.4738 104.088 60.0262 104.088C58.5786 104.088 57.405 102.915 57.405 101.467V97.7973C57.405 96.3497 58.5786 95.1761 60.0262 95.1761ZM18.5071 57.3791C17.0595 57.3791 15.886 58.5526 15.886 60.0002C15.886 61.4479 17.0595 62.6214 18.5071 62.6214H22.2291C23.6768 62.6214 24.8503 61.4479 24.8503 60.0002C24.8503 58.5526 23.6768 57.3791 22.2291 57.3791H18.5071ZM95.2545 60.0002C95.2545 58.5526 96.428 57.3791 97.8757 57.3791H101.493C102.94 57.3791 104.114 58.5526 104.114 60.0002C104.114 61.4479 102.94 62.6214 101.493 62.6214H97.8757C96.428 62.6214 95.2545 61.4479 95.2545 60.0002ZM35.1439 88.5894C36.1675 87.5658 36.1675 85.9062 35.1439 84.8826C34.1202 83.8589 32.4606 83.8589 31.437 84.8826L28.8683 87.4513C27.8446 88.4749 27.8446 90.1346 28.8683 91.1582C29.8919 92.1818 31.5515 92.1818 32.5751 91.1582L35.1439 88.5894ZM91.1841 28.8423C92.2078 29.8659 92.2078 31.5255 91.1841 32.5492L88.6154 35.1179C87.5918 36.1415 85.9322 36.1415 84.9085 35.1179C83.8849 34.0943 83.8849 32.4347 84.9085 31.411L87.4773 28.8423C88.5009 27.8187 90.1605 27.8187 91.1841 28.8423ZM32.5751 28.8423C31.5515 27.8187 29.8919 27.8187 28.8683 28.8423C27.8446 29.8659 27.8446 31.5255 28.8683 32.5492L31.437 35.1179C32.4606 36.1415 34.1202 36.1415 35.1439 35.1179C36.1675 34.0943 36.1675 32.4347 35.1439 31.411L32.5751 28.8423ZM84.9085 84.8826C85.9322 83.8589 87.5918 83.8589 88.6154 84.8826L91.1841 87.4513C92.2078 88.4749 92.2078 90.1346 91.1841 91.1582C90.1605 92.1818 88.5009 92.1818 87.4773 91.1582L84.9085 88.5894C83.8849 87.5658 83.8849 85.9062 84.9085 84.8826ZM60 89.1388C76.0928 89.1388 89.1385 76.093 89.1385 60.0003C89.1385 43.9075 76.0928 30.8618 60 30.8618C43.9073 30.8618 30.8615 43.9075 30.8615 60.0003C30.8615 76.093 43.9073 89.1388 60 89.1388Z" fill="url(#paint0_linear_102_76)"/>
</g>
<defs>
<filter id="filter0_di_102_76" x="3.88599" y="3.91241" width="112.228" height="112.176" filterUnits="userSpaceOnUse" color-interpolation-filters="sRGB">
<feFlood flood-opacity="0" result="BackgroundImageFix"/>
<feColorMatrix in="SourceAlpha" type="matrix" values="0 0 0 0 0 0 0 0 0 0 0 0 0 0 0 0 0 0 127 0" result="hardAlpha"/>
<feOffset/>
<feGaussianBlur stdDeviation="6"/>
<feComposite in2="hardAlpha" operator="out"/>
<feColorMatrix type="matrix" values="0 0 0 0 1 0 0 0 0 0.9 0 0 0 0 0 0 0 0 0.4 0"/>
<feBlend mode="normal" in2="BackgroundImageFix" result="effect1_dropShadow_102_76"/>
<feBlend mode="normal" in="SourceGraphic" in2="effect1_dropShadow_102_76" result="shape"/>
<feColorMatrix in="SourceAlpha" type="matrix" values="0 0 0 0 0 0 0 0 0 0 0 0 0 0 0 0 0 0 127 0" result="hardAlpha"/>
<feOffset dy="0.6"/>
<feGaussianBlur stdDeviation="1.8"/>
<feComposite in2="hardAlpha" operator="arithmetic" k2="-1" k3="1"/>
<feColorMatrix type="matrix" values="0 0 0 0 1 0 0 0 0 1 0 0 0 0 1 0 0 0 1 0"/>
<feBlend mode="normal" in2="shape" result="effect2_innerShadow_102_76"/>
</filter>
<linearGradient id="paint0_linear_102_76" x1="60" y1="15.9124" x2="60" y2="104.088" gradientUnits="userSpaceOnUse">
<stop stop-color="#FCC308"/>
<stop offset="1" stop-color="#FF627C"/>
</linearGradient>
</defs>
</svg>
